<svg xmlns="http://www.w3.org/2000/svg" xmlns:xlink="http://www.w3.org/1999/xlink" width="900" height="600"><path fill="green" d="M0 0h900v600H0z"/><path fill="#0080ff" d="M0 0h900v300H0z"/><circle cx="450" cy="300" r="200" fill="#f80000"/><g fill="#0080ff"><g id="b"><use xlink:href="#a" transform="rotate(-90 450 300)"/><use xlink:href="#a" transform="rotate(-67.5 450 300)"/><use xlink:href="#a" transform="rotate(-45 450 300)"/><use xlink:href="#a" transform="rotate(-22.5 450 300)"/><g id="a" transform="rotate(11.25 450 300)"><circle cx="450" cy="140.625" r="20.625"/><circle cx="450" cy="242.5" r="7.5"/><path d="M450 140.625V242.5h12l18-101.875z" transform="rotate(-7.5 450 300)"/><path d="M450 140.625V242.5h-12l-18-101.875z" transform="rotate(7.5 450 300)"/></g><use xlink:href="#a" transform="rotate(22.5 450 300)"/><use xlink:href="#a" transform="rotate(45 450 300)"/><use xlink:href="#a" transform="rotate(67.5 450 300)"/></g></g><use xlink:href="#b" transform="rotate(180 450 300)" fill="green"/></svg>