<svg id="Layer_1" xmlns="http://www.w3.org/2000/svg" width="96.8" height="29.6" viewBox="0 0 96.8 29.6"><style>.st0{fill:#3f3f3f}.st1{fill:#7f7f7f}</style><title>Layer 1</title><path id="path3205" class="st0" d="M20.9 11.3C8.7 1.7-.5 15.9 9.7 18.5c-3.3-2.1-3.5-5.4-1.4-7.2 2.5-1.6 5.7-1.2 8.8.3 2.8 1.7 4.9 4 6.1 4.8l-2.3-5.1z"/><g id="svg_1"><path id="path3195" class="st1" d="M28.5 10.8c3.7-1.1 5.3-2.7 5.6-5 .3-3.3-5.6-4.8-8.6-3.5-1.8.8-4.2 2.7-4.4 5.1.3 5.4 4.1 7.8 8.9 8.6 9.4 1.6 25-8.8 37-10.6 12.3-1.7 17.2 2.8 20 6.2C81.2 7.9 74.2 7 68.7 7.9 55.8 9.8 43.9 20.4 30 18.9c-7.1-1-12.9-6.3-11-12.5C21.9-2.4 33.2-1 34.9 3.7c1.7 4.7-2.6 7.5-6.4 7.1z"/><path id="path3199" class="st1" d="M90.8 14.4c-20.6-9.6-28.5 1.5-23.5 8.3-2.4-7.2 3.4-10.1 8.9-9.9 9.3.3 17.2 5.3 20.5 6.6l-5.9-5z"/></g></svg>