<?xml version="1.0" encoding="utf-8"?>
<!-- Generator: Adobe Illustrator 20.0.0, SVG Export Plug-In . SVG Version: 6.00 Build 0)  -->
<!DOCTYPE svg PUBLIC "-//W3C//DTD SVG 1.1//EN" "http://www.w3.org/Graphics/SVG/1.1/DTD/svg11.dtd">
<svg version="1.1" id="Layer_1" xmlns="http://www.w3.org/2000/svg" xmlns:xlink="http://www.w3.org/1999/xlink" x="0px" y="0px"
	 width="96.8px" height="29.6px" viewBox="0 0 96.8 29.6" style="enable-background:new 0 0 96.8 29.6;" xml:space="preserve">
<style type="text/css">
	.st0{fill:#3F3F3F;}
	.st1{fill:#7F7F7F;}
</style>
<g>
	<title>Layer 1</title>
	<path id="path3205" class="st0" d="M20.9,11.3C8.7,1.7-0.5,15.9,9.7,18.5c-3.3-2.1-3.5-5.4-1.4-7.2c2.5-1.6,5.7-1.2,8.8,0.3
		c2.8,1.7,4.9,4,6.1,4.8L20.9,11.3L20.9,11.3z"/>
	<g id="svg_1">
		<path id="path3195" class="st1" d="M28.5,10.8c3.7-1.1,5.3-2.7,5.6-5c0.3-3.3-5.6-4.8-8.6-3.5c-1.8,0.8-4.2,2.7-4.4,5.1
			c0.3,5.4,4.1,7.8,8.9,8.6c9.4,1.6,25-8.8,37-10.6C79.3,3.7,84.2,8.2,87,11.6C81.2,7.9,74.2,7,68.7,7.9C55.8,9.8,43.9,20.4,30,18.9
			c-7.1-1-12.9-6.3-11-12.5C21.9-2.4,33.2-1,34.9,3.7C36.6,8.4,32.3,11.2,28.5,10.8z"/>
		<path id="path3199" class="st1" d="M90.8,14.4c-20.6-9.6-28.5,1.5-23.5,8.3c-2.4-7.2,3.4-10.1,8.9-9.9c9.3,0.3,17.2,5.3,20.5,6.6
			L90.8,14.4z"/>
	</g>
</g>
</svg>
