<?xml version="1.0" standalone="no"?>
<!DOCTYPE svg PUBLIC "-//W3C//DTD SVG 20010904//EN"
 "http://www.w3.org/TR/2001/REC-SVG-20010904/DTD/svg10.dtd">
<svg version="1.0" xmlns="http://www.w3.org/2000/svg"
 width="100.000000pt" height="100.000000pt" viewBox="0 0 100.000000 100.000000"
 preserveAspectRatio="xMidYMid meet">
<metadata>
Created by potrace 1.11, written by Peter Selinger 2001-2013
</metadata>
<g transform="translate(0.000000,100.000000) scale(0.100000,-0.100000)"
fill="#000000" stroke="none">
<path d="M473 958 c3 -10 1 -15 -5 -12 -5 3 -12 -3 -15 -15 -3 -11 -9 -18 -14
-15 -5 3 -9 0 -9 -7 0 -7 -8 -21 -17 -31 -16 -18 -16 -18 2 -12 13 5 16 4 11
-4 -4 -7 -14 -12 -22 -12 -8 0 -13 -4 -10 -9 3 -5 -1 -12 -10 -15 -22 -9 -26
-8 -18 6 4 7 3 8 -5 4 -9 -6 -9 -11 -1 -21 9 -11 7 -12 -8 -9 -10 3 -25 -2
-33 -12 -9 -11 -9 -15 -1 -10 7 4 12 1 12 -8 0 -9 -5 -16 -11 -16 -5 0 -7 -5
-4 -10 4 -6 12 -7 18 -3 7 4 6 0 -2 -10 -7 -9 -17 -15 -21 -12 -5 3 -11 1 -15
-5 -4 -6 -11 -7 -17 -4 -6 4 -8 2 -4 -4 3 -6 2 -13 -4 -17 -5 -3 -10 -2 -10 3
0 5 -7 9 -15 9 -8 0 -12 -4 -9 -9 3 -4 -2 -8 -10 -8 -9 0 -16 -5 -16 -11 0 -5
4 -7 10 -4 6 3 7 -1 4 -9 -3 -9 -10 -14 -14 -11 -5 3 -11 -4 -15 -14 -4 -13
-11 -18 -22 -14 -11 4 -14 2 -9 -5 4 -7 1 -12 -8 -12 -9 0 -16 -5 -16 -11 0
-5 5 -7 12 -3 6 4 8 3 4 -4 -3 -6 -15 -9 -25 -7 -15 3 -19 -1 -16 -17 3 -13 0
-18 -8 -15 -8 3 -14 -3 -14 -14 -1 -12 3 -17 9 -13 7 4 8 2 4 -5 -4 -6 -13 -8
-19 -4 -18 11 -37 12 -37 3 0 -5 6 -11 13 -13 6 -3 0 -4 -16 -3 -15 2 -30 6
-35 10 -4 4 -2 6 3 4 11 -3 15 4 15 25 -1 14 -23 -21 -26 -40 -1 -7 2 -15 7
-19 5 -3 7 -9 4 -14 -3 -5 -1 -11 4 -15 6 -3 8 3 6 15 -4 23 20 28 29 5 6 -16
34 -10 49 9 5 6 5 1 2 -11 -4 -15 -2 -23 5 -23 7 0 9 -7 6 -16 -3 -8 -2 -12 4
-9 6 3 10 1 10 -4 0 -6 10 -11 23 -11 16 0 18 -3 8 -9 -11 -7 -8 -11 10 -17
13 -4 27 -7 32 -6 4 1 8 -7 8 -18 1 -19 4 -31 9 -47 1 -5 2 -10 2 -13 0 -3 13
-5 29 -6 18 -1 26 3 22 10 -4 6 1 5 10 -3 9 -7 14 -18 10 -25 -4 -6 2 -4 13 4
10 8 16 11 12 6 -4 -5 0 -15 8 -23 13 -14 13 -18 -3 -36 -10 -12 -12 -17 -4
-12 11 6 13 4 8 -9 -6 -14 -3 -17 8 -12 9 3 13 2 10 -3 -9 -16 16 -25 27 -10
7 10 8 9 4 -6 -5 -16 -1 -21 16 -22 19 -2 20 0 8 8 -13 9 -13 10 0 6 8 -2 14
-14 14 -25 -1 -12 3 -22 9 -22 5 0 3 -8 -4 -17 -10 -11 -10 -14 -1 -9 6 4 12
2 12 -4 0 -6 11 -15 24 -20 18 -7 23 -14 19 -30 -5 -19 -2 -21 33 -18 32 2 40
7 42 26 2 15 8 22 18 18 8 -3 13 0 11 7 -1 7 3 11 9 10 6 -1 11 4 11 12 0 8
-4 12 -9 9 -4 -3 -5 2 -2 11 4 9 12 14 18 12 7 -3 11 8 11 27 0 28 3 31 33 30
17 -1 32 3 32 8 0 5 6 6 13 2 7 -5 6 0 -3 11 -8 10 -10 16 -3 12 6 -4 14 -3
18 3 3 5 2 10 -3 10 -5 0 -9 7 -9 15 0 10 6 14 16 10 11 -3 10 0 -3 10 -17 13
-18 17 -6 28 10 9 11 9 6 0 -5 -9 -2 -11 8 -7 9 3 13 10 10 15 -7 13 19 7 28
-6 5 -6 8 -4 8 5 0 13 1 13 10 0 7 -11 10 -11 10 -2 0 8 5 10 13 6 9 -6 9 -4
-1 8 -9 11 -10 18 -2 23 6 3 8 10 5 14 -2 5 4 16 15 26 12 10 20 13 20 7 0 -7
-5 -12 -12 -12 -6 0 -9 -3 -5 -6 3 -3 14 -1 24 5 10 6 14 11 8 11 -5 0 1 6 15
13 14 7 24 21 24 30 -1 9 3 15 8 14 6 -1 13 4 16 12 3 9 0 11 -9 6 -8 -5 -10
-4 -6 0 11 13 38 15 31 3 -4 -6 -2 -8 4 -4 6 3 10 14 10 24 0 9 3 26 7 36 5
11 5 17 -1 14 -5 -3 -20 9 -34 28 -14 18 -31 34 -39 34 -7 0 -11 6 -8 14 4 10
-1 13 -18 11 -22 -2 -23 0 -13 19 10 19 10 20 -5 7 -10 -7 -17 -12 -18 -10 0
2 -2 13 -3 25 -1 11 -10 31 -19 44 -22 32 -22 17 0 -18 19 -31 7 -21 -27 23
-13 17 -20 22 -16 11 5 -15 3 -17 -11 -11 -10 4 -24 8 -30 8 -7 0 -13 3 -13 7
0 3 6 12 13 19 8 8 8 11 0 9 -6 -2 -11 0 -12 5 -3 21 0 28 9 22 6 -3 10 -1 10
4 0 6 0 14 1 19 1 12 -45 19 -59 9 -10 -8 -12 -6 -10 4 2 9 -4 13 -14 11 -12
-2 -16 2 -12 12 3 8 0 17 -7 22 -8 5 -10 3 -4 -7 5 -8 4 -11 0 -6 -5 4 -10 17
-12 29 -3 17 -1 19 12 8 9 -7 15 -8 15 -2 0 5 -7 13 -16 16 -8 3 -13 10 -9 15
3 5 0 13 -6 17 -8 5 -9 3 -4 -6 5 -9 4 -11 -3 -6 -7 4 -12 13 -12 19 -1 20
-47 47 -75 45 -20 -2 -25 -7 -22 -20z m77 -13 c7 -9 8 -15 2 -15 -5 0 -12 7
-16 15 -3 8 -4 15 -2 15 2 0 9 -7 16 -15z m-240 -239 c0 -3 -4 -8 -10 -11 -5
-3 -10 -1 -10 4 0 6 5 11 10 11 6 0 10 -2 10 -4z m600 -161 c7 -9 8 -15 2 -15
-5 0 -12 7 -16 15 -3 8 -4 15 -2 15 2 0 9 -7 16 -15z m-830 -59 c0 -3 -4 -8
-10 -11 -5 -3 -10 -1 -10 4 0 6 5 11 10 11 6 0 10 -2 10 -4z m795 -65 c3 -5 2
-12 -3 -15 -5 -3 -9 1 -9 9 0 17 3 19 12 6z m-630 -101 c3 -6 -1 -7 -9 -4 -18
7 -21 14 -7 14 6 0 13 -4 16 -10z m289 -278 c3 -5 -1 -9 -9 -9 -8 0 -12 4 -9
9 3 4 7 8 9 8 2 0 6 -4 9 -8z"/>
<path d="M946 495 c-4 -11 1 -14 19 -13 28 3 33 13 9 22 -21 8 -21 8 -28 -9z"/>
</g>
</svg>
